<svg width="804" height="161" viewBox="0 0 804 161" fill="none" xmlns="http://www.w3.org/2000/svg">
<path d="M64.9749 62.5996L60.0001 66.5795L55.0252 62.5996L52.73 65.4678L60.0001 71.2839L67.2701 65.4678L64.9749 62.5996Z" fill="black"/>
<path d="M40.4849 62.5996L35.5101 66.5795L30.5352 62.5996L28.24 65.4678L35.5101 71.2839L42.7801 65.4678L40.4849 62.5996Z" fill="black"/>
<path d="M15.9952 62.5996L11.0203 66.5795L6.04549 62.5996L3.75049 65.4678L11.0203 71.2839L18.2904 65.4678L15.9952 62.5996Z" fill="black"/>
<path d="M89.4646 62.5996L84.4898 66.5795L79.515 62.5996L77.2197 65.4678L84.4898 71.2839L91.7599 65.4678L89.4646 62.5996Z" fill="black"/>
<path d="M113.955 62.5996L108.98 66.5795L104.005 62.5996L101.71 65.4678L108.98 71.2839L116.25 65.4678L113.955 62.5996Z" fill="black"/>
<path d="M64.9749 84.6402L60.0001 88.6203L55.0252 84.6402L52.73 87.5087L60.0001 93.3245L67.2701 87.5087L64.9749 84.6402Z" fill="black"/>
<path d="M40.4849 84.6402L35.5101 88.6203L30.5352 84.6402L28.24 87.5087L35.5101 93.3245L42.7801 87.5087L40.4849 84.6402Z" fill="black"/>
<path d="M15.9952 84.6402L11.0203 88.6203L6.04549 84.6402L3.75049 87.5087L11.0203 93.3245L18.2904 87.5087L15.9952 84.6402Z" fill="black"/>
<path d="M89.4646 84.6402L84.4898 88.6203L79.515 84.6402L77.2197 87.5087L84.4898 93.3245L91.7599 87.5087L89.4646 84.6402Z" fill="black"/>
<path d="M113.955 84.6402L108.98 88.6203L104.005 84.6402L101.71 87.5087L108.98 93.3245L116.25 87.5087L113.955 84.6402Z" fill="black"/>
<path d="M64.9749 106.681L60.0001 110.661L55.0252 106.681L52.73 109.55L60.0001 115.365L67.2701 109.55L64.9749 106.681Z" fill="black"/>
<path d="M40.4849 106.681L35.5101 110.661L30.5352 106.681L28.24 109.55L35.5101 115.365L42.7801 109.55L40.4849 106.681Z" fill="black"/>
<path d="M15.9952 106.681L11.0203 110.661L6.04549 106.681L3.75049 109.55L11.0203 115.365L18.2904 109.55L15.9952 106.681Z" fill="black"/>
<path d="M89.4646 106.681L84.4898 110.661L79.515 106.681L77.2197 109.55L84.4898 115.365L91.7599 109.55L89.4646 106.681Z" fill="black"/>
<path d="M113.955 106.681L108.98 110.661L104.005 106.681L101.71 109.55L108.98 115.365L116.25 109.55L113.955 106.681Z" fill="black"/>
<path d="M120 97.7078H0V101.381H120V97.7078Z" fill="black"/>
<path d="M120 75.6669H0V79.3403H120V75.6669Z" fill="black"/>
<path d="M120 45.0542V41.3809H0V45.0542H9.18375V53.6256H0V57.2989H120V53.6256H110.816V45.0542H120ZM33.6734 53.6256H12.8571V45.0542H33.6734V53.6256ZM58.1632 53.6256H37.347V45.0542H58.1632V53.6256ZM82.6531 53.6256H61.8368V45.0542H82.6531V53.6256ZM107.143 53.6256H86.3266V45.0542H107.143V53.6256Z" fill="black"/>
<path d="M59.9999 4.64613C51.5601 4.64613 44.6938 11.5126 44.6938 19.9522C44.6938 28.3918 51.5601 35.2583 59.9999 35.2583C68.4398 35.2583 75.306 28.3918 75.306 19.9522C75.306 11.5126 68.4398 4.64613 59.9999 4.64613ZM59.9999 31.5847C53.5858 31.5847 48.3672 26.3661 48.3672 19.952C48.3672 13.5379 53.5858 8.31949 59.9999 8.31949C66.4141 8.31949 71.6327 13.5381 71.6327 19.9522C71.6327 26.3664 66.4141 31.5847 59.9999 31.5847Z" fill="black"/>
<path d="M104.082 15.0543L103.822 13.236C101.326 13.5925 97.6847 14.7125 95.5102 16.9164C93.3355 14.7125 89.6947 13.5927 87.1986 13.236L86.6792 16.8728C88.1567 17.0837 93.6734 18.4328 93.6734 21.1768H97.3468C97.3468 19.9614 98.3949 18.89 100.462 17.9917C102.358 17.1681 104.324 16.8749 104.344 16.8723L104.082 15.0543Z" fill="black"/>
<path d="M28.1633 22.4012L27.9034 20.5829C25.4073 20.9394 21.7665 22.0595 19.5918 24.2633C17.417 22.0595 13.7762 20.9396 11.2801 20.5829L10.7607 24.2197C12.2382 24.4307 17.755 25.7797 17.755 28.5238H21.4283C21.4283 27.3083 22.4764 26.237 24.5436 25.3386C26.4395 24.515 28.4059 24.2218 28.4256 24.2192L28.1633 22.4012Z" fill="black"/>
<g clip-path="url(#clip0)">
<path d="M289.783 29.1298V24.0277C290.996 24.241 292.595 24.4405 294.34 24.4405C298.124 24.4405 301.208 23.5231 303.505 21.7142C309.466 17.0188 309.028 7.00768 309.006 6.58393L308.942 5.32252L307.731 4.96487C307.603 4.92737 304.57 4.04354 300.897 4.04354C297.112 4.04354 294.029 4.96065 291.733 6.76955C290.635 7.63393 289.756 8.6783 289.05 9.80939C287.155 4.12042 281.784 0.0057373 275.466 0.0057373H269.308V3.57151H275.466C281.394 3.57151 286.217 8.39447 286.217 14.3227V20.9403C286.216 21.1065 286.216 21.2534 286.217 21.3802V29.1301C261.975 30.0699 242.543 50.081 242.543 74.5488C242.543 99.6137 262.935 120.006 288 120.006C313.065 120.006 333.457 99.614 333.457 74.5488C333.457 50.081 314.024 30.0699 289.783 29.1298ZM290.186 16.8863C290.625 14.5517 291.632 11.3874 293.939 9.57056C295.592 8.26885 297.932 7.60932 300.897 7.60932C302.708 7.60932 304.361 7.86549 305.44 8.08322C305.407 8.96541 305.311 10.2153 305.051 11.5977C304.612 13.9323 303.605 17.0963 301.298 18.9132C299.646 20.2149 297.305 20.8749 294.34 20.8749C292.529 20.8749 290.876 20.6187 289.798 20.401C289.83 19.5186 289.926 18.2689 290.186 16.8863ZM288 116.44C264.901 116.44 246.109 97.6476 246.109 74.5483C246.109 51.4491 264.901 32.6572 288 32.6572C311.099 32.6572 329.891 51.4495 329.891 74.5486C329.891 97.6476 311.099 116.44 288 116.44Z" fill="black"/>
<path d="M303.697 105.558C298.802 108.047 293.521 109.309 288 109.309V112.874C294.088 112.874 299.912 111.482 305.313 108.737L303.697 105.558Z" fill="black"/>
<path d="M322.76 74.5488C322.76 86.0139 317.089 96.7427 307.591 103.248L309.606 106.19C320.075 99.0194 326.326 87.1907 326.326 74.5488H322.76Z" fill="black"/>
</g>
<path d="M537 120.389H532.385C531.111 120.389 530.077 121.423 530.077 122.697C530.077 123.97 531.111 125.004 532.385 125.004H537C538.274 125.004 539.308 123.97 539.308 122.697C539.308 121.423 538.274 120.389 537 120.389Z" fill="black"/>
<path d="M518.539 120.389H495.462C494.188 120.389 493.154 121.423 493.154 122.697C493.154 123.97 494.188 125.004 495.462 125.004H518.539C519.812 125.004 520.846 123.97 520.846 122.697C520.846 121.423 519.813 120.389 518.539 120.389Z" fill="black"/>
<path d="M481.615 120.389H449.308C448.034 120.389 447 121.423 447 122.697C447 123.97 448.034 125.004 449.308 125.004H481.615C482.889 125.004 483.923 123.97 483.923 122.697C483.923 121.423 482.889 120.389 481.615 120.389Z" fill="black"/>
<path d="M582.478 63.3729L576.152 57.0475L573.923 30.3891C573.923 24.0268 568.747 18.8505 562.384 18.8505H546.231C544.957 18.8505 543.923 19.8844 543.923 21.1581C543.923 22.4318 544.957 23.4657 546.231 23.4657H562.384C566.137 23.4657 569.308 26.6365 569.315 30.5802L571.414 55.7732H563.811L566.755 49.8816C567.328 48.7417 566.864 47.3571 565.724 46.787C564.582 46.2148 563.197 46.6786 562.627 47.8184L558.651 55.773H546.231C544.957 55.773 543.923 56.8068 543.923 58.0806C543.923 59.3543 544.957 60.3882 546.231 60.3882H572.968L579.215 66.6352C580.53 67.9505 580.842 70.9759 580.846 71.9267V74.2343H578.539C577.265 74.2343 576.231 75.2682 576.231 76.5419C576.231 77.8157 577.265 78.8495 578.539 78.8495H580.846V97.3112H576.046C574.922 89.4951 568.2 83.465 560.077 83.465C551.169 83.465 543.923 90.7113 543.923 99.6188C543.923 108.526 551.169 115.773 560.077 115.773C568.2 115.773 574.922 109.742 576.046 101.926H583.154C584.428 101.926 585.462 100.893 585.462 99.6188V71.9275C585.462 71.3575 585.379 66.2714 582.478 63.3729ZM560.077 111.158C553.715 111.158 548.538 105.982 548.538 99.6198C548.538 93.2574 553.714 88.0813 560.077 88.0813C566.439 88.0813 571.615 93.2574 571.615 99.6198C571.615 105.982 566.439 111.158 560.077 111.158Z" fill="black"/>
<path d="M481.615 92.6968C477.799 92.6968 474.692 95.803 474.692 99.6199C474.692 103.437 477.799 106.543 481.615 106.543C485.432 106.543 488.539 103.437 488.539 99.6199C488.539 95.803 485.432 92.6968 481.615 92.6968ZM481.615 101.927C480.344 101.927 479.308 100.891 479.308 99.6199C479.308 98.3483 480.344 97.3123 481.615 97.3123C482.887 97.3123 483.923 98.3483 483.923 99.6199C483.923 100.891 482.887 101.927 481.615 101.927Z" fill="black"/>
<path d="M583.154 120.389H546.231C544.957 120.389 543.923 121.423 543.923 122.697C543.923 123.97 544.957 125.004 546.231 125.004H583.154C584.427 125.004 585.461 123.97 585.461 122.697C585.461 121.423 584.428 120.389 583.154 120.389Z" fill="black"/>
<path d="M560.077 92.6968C556.26 92.6968 553.154 95.803 553.154 99.6199C553.154 103.437 556.26 106.543 560.077 106.543C563.894 106.543 567 103.437 567 99.6199C567 95.803 563.894 92.6968 560.077 92.6968ZM560.077 101.927C558.805 101.927 557.769 100.891 557.769 99.6199C557.769 98.3483 558.805 97.3123 560.077 97.3123C561.348 97.3123 562.384 98.3483 562.384 99.6199C562.384 100.891 561.348 101.927 560.077 101.927Z" fill="black"/>
<path d="M537 5.00433H458.539C452.176 5.00433 447 10.1807 447 16.5429V90.3892C447 96.8598 452.068 101.928 458.539 101.928C459.812 101.928 460.846 100.894 460.846 99.6201C460.846 98.3464 459.812 97.3125 458.539 97.3125C454.657 97.3125 451.615 94.271 451.615 90.3895V16.5429C451.615 12.726 454.722 9.61981 458.539 9.61981H534.692V74.2352H458.539C457.265 74.2352 456.231 75.269 456.231 76.5428C456.231 77.8165 457.265 78.8504 458.539 78.8504H534.692V97.312H497.585C496.461 89.496 489.736 83.4658 481.615 83.4658C472.708 83.4658 465.462 90.7121 465.462 99.6196C465.462 108.527 472.708 115.774 481.615 115.774C489.736 115.774 496.461 109.744 497.585 101.927H537C538.274 101.927 539.308 100.894 539.308 99.6199V7.31221C539.308 6.0382 538.274 5.00433 537 5.00433ZM481.615 111.158C475.253 111.158 470.077 105.982 470.077 99.6199C470.077 93.2574 475.253 88.0813 481.615 88.0813C487.978 88.0813 493.154 93.2574 493.154 99.6199C493.154 105.982 487.978 111.158 481.615 111.158Z" fill="black"/>
<g clip-path="url(#clip1)">
<path d="M743.98 24.3195C744.005 24.3195 744.029 24.3195 744.029 24.3195C753.931 24.2214 752.485 10.9861 752.485 10.9861C752.093 2.13808 744.716 2.21161 743.98 2.23612C743.245 2.21161 735.868 2.13808 735.451 10.9616C735.451 10.9616 734.005 24.1969 743.931 24.2949C743.931 24.3195 743.956 24.3195 743.98 24.3195Z" fill="#96744F"/>
<path d="M743.981 40.7655L750.378 31.942C750.378 31.942 754.887 33.7557 758.564 36.4763C759.52 37.1871 759.961 37.6038 760.819 38.4616C762.853 40.4959 761.995 52.2851 760.819 56.5989C759.642 60.9126 756.186 67.1136 756.186 67.1136C755.5 68.6822 755.059 70.3734 754.887 72.0645L750.476 115.324C750.329 116.697 749.177 117.751 747.804 117.751H743.981H740.157C738.784 117.751 737.608 116.697 737.485 115.324L733.074 72.0645C732.902 70.3489 732.461 68.6822 731.775 67.1136C731.775 67.1136 728.319 60.9371 727.142 56.5989C725.966 52.2851 725.108 40.4959 727.142 38.4616C728 37.6038 728.441 37.1871 729.397 36.4763C733.074 33.7802 737.583 31.942 737.583 31.942L743.981 40.7655Z" fill="#96744F"/>
<path d="M694.225 60.9861C695.328 65.0057 698.27 70.4224 698.711 71.2557C699.25 72.5057 699.593 73.8047 699.716 75.1528L703.858 115.741C704.103 118.168 706.137 120.006 708.588 120.006H715.745C718.196 120.006 720.23 118.168 720.475 115.741L724.618 75.1528C724.765 73.7802 725.108 72.4322 725.672 71.1822C726.162 70.0547 725.647 68.7557 724.544 68.2655C723.417 67.7753 722.118 68.29 721.627 69.393C720.892 71.0842 720.402 72.8734 720.23 74.7116L716.088 115.3C716.064 115.447 715.941 115.569 715.794 115.569H708.637C708.49 115.569 708.343 115.447 708.343 115.3L704.152 74.6871C703.956 72.8489 703.49 71.0597 702.755 69.3685C702.73 69.2949 702.706 69.2459 702.657 69.1724C702.632 69.1234 699.544 63.5596 698.515 59.8096C697.387 55.6185 697.069 46.5008 698 44.8832C698.735 44.1479 699.054 43.8538 699.814 43.29C701.75 41.8685 703.98 40.7165 705.426 40.0302L710.377 46.844C710.794 47.4077 711.456 47.7508 712.167 47.7508C712.877 47.7508 713.539 47.4077 713.956 46.844L719.961 38.5842C720.672 37.6038 720.451 36.2067 719.471 35.4714C718.49 34.7606 717.093 34.9812 716.358 35.9616L712.142 41.7459L707.975 35.9861C707.387 35.1528 706.284 34.8587 705.353 35.2263C705.181 35.2998 700.819 37.0645 697.191 39.7361C696.162 40.4959 695.672 40.9616 694.814 41.8195C691.676 44.9567 693.417 57.9959 694.225 60.9861Z" fill="black"/>
<path d="M711.97 32.3342C712.019 32.3342 712.068 32.3342 712.117 32.3342C712.142 32.3342 712.191 32.3342 712.216 32.3342C712.265 32.3342 712.314 32.3342 712.387 32.3342C715.23 32.2606 717.632 31.2312 719.348 29.295C723 25.1773 722.485 18.3146 722.387 17.4567C722.019 9.88319 716.75 7.21162 712.363 7.21162C712.289 7.21162 712.216 7.21162 712.167 7.21162C712.117 7.21162 712.044 7.21162 711.97 7.21162C707.583 7.21162 702.338 9.9077 701.946 17.4567C701.872 18.3146 701.333 25.1773 704.985 29.295C706.725 31.2312 709.127 32.2852 711.97 32.3342ZM706.382 17.8489C706.382 17.7999 706.382 17.7508 706.382 17.7018C706.627 12.4077 709.985 11.6234 711.97 11.6234H712.068C712.117 11.6234 712.191 11.6234 712.24 11.6234H712.338C714.323 11.6234 717.681 12.4077 717.926 17.7018C717.926 17.7508 717.926 17.7999 717.926 17.8244C718.098 19.393 718.049 23.9763 715.966 26.3293C715.059 27.3587 713.809 27.8734 712.167 27.8734C712.142 27.8734 712.142 27.8734 712.117 27.8734C710.475 27.8489 709.225 27.3587 708.318 26.3293C706.26 24.0008 706.235 19.4175 706.382 17.8489Z" fill="black"/>
<path d="M763.441 68.241C762.314 68.7312 761.799 70.0547 762.314 71.1577C762.877 72.4322 763.22 73.7557 763.368 75.1283L767.51 115.717C767.755 118.143 769.789 119.981 772.24 119.981H779.397C781.848 119.981 783.882 118.143 784.127 115.717L788.269 75.1283C788.417 73.7802 788.735 72.4812 789.274 71.2312C789.716 70.4224 792.681 65.0057 793.76 60.9616C794.568 57.9714 796.333 44.9322 793.196 41.7949C792.338 40.9371 791.848 40.4714 790.818 39.7116C787.191 37.04 782.853 35.2753 782.657 35.2018C781.701 34.8097 780.622 35.1283 780.034 35.9616L775.818 41.7459L771.578 35.9861C770.868 34.9812 769.47 34.7851 768.466 35.4959C767.485 36.2067 767.265 37.6038 767.975 38.6087L773.98 46.8685C774.397 47.4322 775.059 47.7753 775.769 47.7753C776.48 47.7753 777.142 47.4322 777.559 46.8685L782.51 40.0548C783.956 40.741 786.186 41.893 788.122 43.3146C788.858 43.8538 789.176 44.1724 789.936 44.9077C790.867 46.5253 790.549 55.643 789.421 59.8342C788.392 63.5842 785.304 69.1479 785.279 69.1969C785.255 69.2459 785.206 69.3195 785.181 69.393C784.446 71.0842 783.956 72.8734 783.784 74.7116L779.642 115.3C779.618 115.447 779.495 115.569 779.348 115.569H772.191C772.044 115.569 771.897 115.447 771.897 115.3L767.755 74.7116C767.559 72.8734 767.093 71.0842 766.358 69.393C765.868 68.241 764.569 67.7508 763.441 68.241Z" fill="black"/>
<path d="M775.574 32.3342C775.623 32.3342 775.672 32.3342 775.745 32.3342C775.77 32.3342 775.819 32.3342 775.843 32.3342C775.892 32.3342 775.941 32.3342 775.99 32.3342C778.833 32.2852 781.235 31.2312 782.976 29.295C786.627 25.1773 786.113 18.3146 786.015 17.4567C785.647 9.88319 780.402 7.21162 775.99 7.21162C775.917 7.21162 775.843 7.21162 775.794 7.21162C775.745 7.21162 775.672 7.21162 775.598 7.21162C771.211 7.21162 765.966 9.9077 765.574 17.4567C765.5 18.3146 764.961 25.1773 768.613 29.295C770.328 31.2312 772.73 32.2606 775.574 32.3342ZM769.985 17.8489C769.985 17.7999 769.985 17.7508 769.985 17.7018C770.23 12.4077 773.588 11.6234 775.574 11.6234H775.672C775.721 11.6234 775.794 11.6234 775.843 11.6234H775.941C777.927 11.6234 781.284 12.4077 781.529 17.7018C781.529 17.7508 781.529 17.7999 781.529 17.8244C781.701 19.393 781.652 23.9763 779.569 26.3293C778.662 27.3587 777.412 27.8489 775.77 27.8734C775.745 27.8734 775.745 27.8734 775.721 27.8734C774.078 27.8489 772.828 27.3587 771.922 26.3293C769.863 24.0008 769.838 19.4175 769.985 17.8489Z" fill="black"/>
<path d="M725.574 36.893C722.265 40.2018 724.128 54.0008 725.01 57.1871C726.186 61.4763 729.324 67.2606 729.789 68.094C730.378 69.442 730.745 70.8391 730.892 72.2851L735.304 115.545C735.549 118.069 737.657 119.957 740.206 119.957H747.829C750.353 119.957 752.461 118.045 752.731 115.545L757.142 72.2851C757.289 70.8391 757.657 69.4175 758.245 68.094C758.711 67.2361 761.848 61.4763 763.025 57.1871C763.883 54.0008 765.77 40.2018 762.461 36.893C761.554 35.9861 761.039 35.4959 759.961 34.6871C756.113 31.844 751.481 29.9812 751.284 29.8832C750.329 29.491 749.25 29.8097 748.662 30.643L743.981 36.991L739.373 30.643C738.784 29.8097 737.682 29.5155 736.75 29.8832C736.554 29.9567 731.946 31.844 728.074 34.6871C726.995 35.4959 726.456 35.9861 725.574 36.893ZM728.76 39.9812C729.569 39.1724 729.912 38.8538 730.721 38.2655C732.829 36.6969 735.28 35.4469 736.848 34.7116L742.191 42.0646C742.608 42.6283 743.27 42.9714 743.981 42.9714C744.691 42.9714 745.353 42.6283 745.77 42.0646L751.113 34.7116C752.657 35.4469 755.108 36.6969 757.24 38.2655C758.049 38.8538 758.392 39.1724 759.201 39.9812C760.231 41.6479 759.912 51.4763 758.662 56.0106C757.559 60.0302 754.275 65.9616 754.226 66.0106C754.201 66.0597 754.152 66.1332 754.128 66.2067C753.343 67.9959 752.829 69.8832 752.632 71.844L748.221 115.104C748.196 115.349 748 115.52 747.755 115.52H740.132C739.887 115.52 739.691 115.349 739.667 115.104L735.255 71.844C735.059 69.9077 734.569 67.9959 733.76 66.2067C733.735 66.1332 733.711 66.0842 733.662 66.0106C733.637 65.9616 730.329 60.0057 729.226 55.9861C728.049 51.4763 727.731 41.6479 728.76 39.9812Z" fill="black"/>
<path d="M743.76 26.5253C743.809 26.5253 743.882 26.5253 743.931 26.5253C743.956 26.5253 744.029 26.5253 744.054 26.5253C744.103 26.5253 744.152 26.5253 744.201 26.5253C747.24 26.4763 749.691 25.3979 751.529 23.3146C755.402 18.9763 754.814 11.6724 754.74 10.7901C754.348 2.82436 748.833 0.0057373 744.201 0.0057373C744.127 0.0057373 744.054 0.0057373 743.98 0.0057373C743.931 0.0057373 743.858 0.0057373 743.76 0.0057373C739.152 0.0057373 733.613 2.82436 733.221 10.7901C733.147 11.6724 732.559 18.9518 736.431 23.2901C738.27 25.3734 740.745 26.4518 743.76 26.5253ZM737.657 11.2067C737.657 11.1577 737.657 11.1087 737.657 11.0597C737.926 5.07927 742.02 4.44201 743.76 4.44201H743.882C743.931 4.44201 744.005 4.44201 744.054 4.44201H744.176C745.917 4.44201 750.01 5.07927 750.279 11.0597C750.279 11.1087 750.279 11.1577 750.279 11.1822C750.451 12.8734 750.426 17.8244 748.172 20.3489C747.167 21.4763 745.794 22.0401 744.005 22.0401C743.98 22.0401 743.956 22.0401 743.931 22.0401C742.142 22.0155 740.77 21.4763 739.765 20.3489C737.51 17.8489 737.485 12.8979 737.657 11.2067Z" fill="black"/>
</g>
<path d="M33.9281 125.204C35.1787 125.204 36.1587 125.503 36.8681 126.1C37.5774 126.698 37.9321 127.519 37.9321 128.564C37.9321 129.61 37.5774 130.431 36.8681 131.028C36.1587 131.616 35.1787 131.91 33.9281 131.91H31.2961V135.004H30.2601V125.204H33.9281ZM33.9001 131C34.8707 131 35.6127 130.79 36.1261 130.37C36.6394 129.941 36.8961 129.339 36.8961 128.564C36.8961 127.771 36.6394 127.164 36.1261 126.744C35.6127 126.315 34.8707 126.1 33.9001 126.1H31.2961V131H33.9001ZM40.7228 129.082C40.9561 128.588 41.3014 128.214 41.7588 127.962C42.2254 127.71 42.7994 127.584 43.4808 127.584V128.55L43.2428 128.536C42.4681 128.536 41.8614 128.774 41.4228 129.25C40.9841 129.726 40.7648 130.394 40.7648 131.252V135.004H39.7708V127.64H40.7228V129.082ZM48.2222 135.074C47.5128 135.074 46.8735 134.916 46.3042 134.598C45.7348 134.272 45.2868 133.824 44.9602 133.254C44.6335 132.685 44.4702 132.041 44.4702 131.322C44.4702 130.604 44.6335 129.96 44.9602 129.39C45.2868 128.821 45.7348 128.378 46.3042 128.06C46.8735 127.743 47.5128 127.584 48.2222 127.584C48.9315 127.584 49.5708 127.743 50.1402 128.06C50.7095 128.378 51.1528 128.821 51.4702 129.39C51.7968 129.96 51.9602 130.604 51.9602 131.322C51.9602 132.041 51.7968 132.685 51.4702 133.254C51.1528 133.824 50.7095 134.272 50.1402 134.598C49.5708 134.916 48.9315 135.074 48.2222 135.074ZM48.2222 134.192C48.7448 134.192 49.2115 134.076 49.6222 133.842C50.0422 133.6 50.3688 133.259 50.6022 132.82C50.8355 132.382 50.9522 131.882 50.9522 131.322C50.9522 130.762 50.8355 130.263 50.6022 129.824C50.3688 129.386 50.0422 129.05 49.6222 128.816C49.2115 128.574 48.7448 128.452 48.2222 128.452C47.6995 128.452 47.2282 128.574 46.8082 128.816C46.3975 129.05 46.0708 129.386 45.8282 129.824C45.5948 130.263 45.4782 130.762 45.4782 131.322C45.4782 131.882 45.5948 132.382 45.8282 132.82C46.0708 133.259 46.3975 133.6 46.8082 133.842C47.2282 134.076 47.6995 134.192 48.2222 134.192ZM60.7095 124.616V135.004H59.7575V133.548C59.4588 134.043 59.0622 134.421 58.5675 134.682C58.0822 134.944 57.5315 135.074 56.9155 135.074C56.2248 135.074 55.5995 134.916 55.0395 134.598C54.4795 134.281 54.0408 133.838 53.7235 133.268C53.4062 132.699 53.2475 132.05 53.2475 131.322C53.2475 130.594 53.4062 129.946 53.7235 129.376C54.0408 128.807 54.4795 128.368 55.0395 128.06C55.5995 127.743 56.2248 127.584 56.9155 127.584C57.5128 127.584 58.0495 127.71 58.5255 127.962C59.0108 128.205 59.4075 128.564 59.7155 129.04V124.616H60.7095ZM56.9995 134.192C57.5128 134.192 57.9748 134.076 58.3855 133.842C58.8055 133.6 59.1322 133.259 59.3655 132.82C59.6082 132.382 59.7295 131.882 59.7295 131.322C59.7295 130.762 59.6082 130.263 59.3655 129.824C59.1322 129.386 58.8055 129.05 58.3855 128.816C57.9748 128.574 57.5128 128.452 56.9995 128.452C56.4768 128.452 56.0055 128.574 55.5855 128.816C55.1748 129.05 54.8482 129.386 54.6055 129.824C54.3722 130.263 54.2555 130.762 54.2555 131.322C54.2555 131.882 54.3722 132.382 54.6055 132.82C54.8482 133.259 55.1748 133.6 55.5855 133.842C56.0055 134.076 56.4768 134.192 56.9995 134.192ZM70.1138 127.64V135.004H69.1618V133.66C68.9005 134.108 68.5411 134.458 68.0838 134.71C67.6265 134.953 67.1038 135.074 66.5158 135.074C65.5545 135.074 64.7938 134.808 64.2338 134.276C63.6831 133.735 63.4078 132.946 63.4078 131.91V127.64H64.4018V131.812C64.4018 132.587 64.5931 133.175 64.9758 133.576C65.3585 133.978 65.9045 134.178 66.6138 134.178C67.3885 134.178 67.9998 133.945 68.4478 133.478C68.8958 133.002 69.1198 132.344 69.1198 131.504V127.64H70.1138ZM76.7757 134.556C76.5891 134.724 76.3557 134.855 76.0757 134.948C75.8051 135.032 75.5204 135.074 75.2217 135.074C74.5311 135.074 73.9991 134.888 73.6257 134.514C73.2524 134.141 73.0657 133.614 73.0657 132.932V128.48H71.7497V127.64H73.0657V126.03H74.0597V127.64H76.2997V128.48H74.0597V132.876C74.0597 133.315 74.1671 133.651 74.3817 133.884C74.6057 134.108 74.9231 134.22 75.3337 134.22C75.5391 134.22 75.7351 134.188 75.9217 134.122C76.1177 134.057 76.2857 133.964 76.4257 133.842L76.7757 134.556ZM81.3355 135.074C80.6261 135.074 79.9868 134.916 79.4175 134.598C78.8481 134.272 78.4001 133.824 78.0735 133.254C77.7468 132.685 77.5835 132.041 77.5835 131.322C77.5835 130.604 77.7468 129.96 78.0735 129.39C78.4001 128.821 78.8481 128.378 79.4175 128.06C79.9868 127.743 80.6261 127.584 81.3355 127.584C82.0448 127.584 82.6841 127.743 83.2535 128.06C83.8228 128.378 84.2661 128.821 84.5835 129.39C84.9101 129.96 85.0735 130.604 85.0735 131.322C85.0735 132.041 84.9101 132.685 84.5835 133.254C84.2661 133.824 83.8228 134.272 83.2535 134.598C82.6841 134.916 82.0448 135.074 81.3355 135.074ZM81.3355 134.192C81.8581 134.192 82.3248 134.076 82.7355 133.842C83.1555 133.6 83.4821 133.259 83.7155 132.82C83.9488 132.382 84.0655 131.882 84.0655 131.322C84.0655 130.762 83.9488 130.263 83.7155 129.824C83.4821 129.386 83.1555 129.05 82.7355 128.816C82.3248 128.574 81.8581 128.452 81.3355 128.452C80.8128 128.452 80.3415 128.574 79.9215 128.816C79.5108 129.05 79.1841 129.386 78.9415 129.824C78.7081 130.263 78.5915 130.762 78.5915 131.322C78.5915 131.882 78.7081 132.382 78.9415 132.82C79.1841 133.259 79.5108 133.6 79.9215 133.842C80.3415 134.076 80.8128 134.192 81.3355 134.192ZM88.0548 129.082C88.2881 128.588 88.6335 128.214 89.0908 127.962C89.5575 127.71 90.1315 127.584 90.8128 127.584V128.55L90.5748 128.536C89.8001 128.536 89.1935 128.774 88.7548 129.25C88.3161 129.726 88.0968 130.394 88.0968 131.252V135.004H87.1028V127.64H88.0548V129.082ZM34.2218 143.1V146.95H39.2898V147.846H34.2218V152.004H33.1858V142.204H39.9058V143.1H34.2218ZM44.1104 144.584C45.0718 144.584 45.8091 144.827 46.3224 145.312C46.8358 145.788 47.0924 146.498 47.0924 147.44V152.004H46.1404V150.856C45.9164 151.239 45.5851 151.538 45.1464 151.752C44.7171 151.967 44.2038 152.074 43.6064 152.074C42.7851 152.074 42.1318 151.878 41.6464 151.486C41.1611 151.094 40.9184 150.576 40.9184 149.932C40.9184 149.307 41.1424 148.803 41.5904 148.42C42.0478 148.038 42.7711 147.846 43.7604 147.846H46.0984V147.398C46.0984 146.764 45.9211 146.283 45.5664 145.956C45.2118 145.62 44.6938 145.452 44.0124 145.452C43.5458 145.452 43.0978 145.532 42.6684 145.69C42.2391 145.84 41.8704 146.05 41.5624 146.32L41.1144 145.578C41.4878 145.261 41.9358 145.018 42.4584 144.85C42.9811 144.673 43.5318 144.584 44.1104 144.584ZM43.7604 151.29C44.3204 151.29 44.8011 151.164 45.2024 150.912C45.6038 150.651 45.9024 150.278 46.0984 149.792V148.588H43.7884C42.5284 148.588 41.8984 149.027 41.8984 149.904C41.8984 150.334 42.0618 150.674 42.3884 150.926C42.7151 151.169 43.1724 151.29 43.7604 151.29ZM58.9763 144.584C59.9003 144.584 60.6236 144.85 61.1463 145.382C61.6783 145.914 61.9443 146.698 61.9443 147.734V152.004H60.9503V147.832C60.9503 147.067 60.7636 146.484 60.3903 146.082C60.0263 145.681 59.5083 145.48 58.8363 145.48C58.0709 145.48 57.4689 145.718 57.0303 146.194C56.5916 146.661 56.3723 147.31 56.3723 148.14V152.004H55.3783V147.832C55.3783 147.067 55.1916 146.484 54.8183 146.082C54.4543 145.681 53.9316 145.48 53.2503 145.48C52.4943 145.48 51.8923 145.718 51.4443 146.194C51.0056 146.661 50.7863 147.31 50.7863 148.14V152.004H49.7923V144.64H50.7443V145.984C51.0056 145.536 51.3696 145.191 51.8363 144.948C52.3029 144.706 52.8396 144.584 53.4463 144.584C54.0623 144.584 54.5943 144.715 55.0423 144.976C55.4996 145.238 55.8403 145.625 56.0643 146.138C56.3349 145.653 56.7223 145.275 57.2263 145.004C57.7396 144.724 58.3229 144.584 58.9763 144.584ZM64.6399 144.64H65.6339V152.004H64.6399V144.64ZM65.1439 143.03C64.9386 143.03 64.7659 142.96 64.6259 142.82C64.4859 142.68 64.4159 142.512 64.4159 142.316C64.4159 142.13 64.4859 141.966 64.6259 141.826C64.7659 141.686 64.9386 141.616 65.1439 141.616C65.3492 141.616 65.5219 141.686 65.6619 141.826C65.8019 141.957 65.8719 142.116 65.8719 142.302C65.8719 142.508 65.8019 142.68 65.6619 142.82C65.5219 142.96 65.3492 143.03 65.1439 143.03ZM68.3997 141.616H69.3937V152.004H68.3997V141.616ZM72.1594 144.64H73.1534V152.004H72.1594V144.64ZM72.6634 143.03C72.4581 143.03 72.2854 142.96 72.1454 142.82C72.0054 142.68 71.9354 142.512 71.9354 142.316C71.9354 142.13 72.0054 141.966 72.1454 141.826C72.2854 141.686 72.4581 141.616 72.6634 141.616C72.8688 141.616 73.0414 141.686 73.1814 141.826C73.3214 141.957 73.3914 142.116 73.3914 142.302C73.3914 142.508 73.3214 142.68 73.1814 142.82C73.0414 142.96 72.8688 143.03 72.6634 143.03ZM78.4952 144.584C79.4565 144.584 80.1939 144.827 80.7072 145.312C81.2205 145.788 81.4772 146.498 81.4772 147.44V152.004H80.5252V150.856C80.3012 151.239 79.9699 151.538 79.5312 151.752C79.1019 151.967 78.5885 152.074 77.9912 152.074C77.1699 152.074 76.5165 151.878 76.0312 151.486C75.5459 151.094 75.3032 150.576 75.3032 149.932C75.3032 149.307 75.5272 148.803 75.9752 148.42C76.4325 148.038 77.1559 147.846 78.1452 147.846H80.4832V147.398C80.4832 146.764 80.3059 146.283 79.9512 145.956C79.5965 145.62 79.0785 145.452 78.3972 145.452C77.9305 145.452 77.4825 145.532 77.0532 145.69C76.6239 145.84 76.2552 146.05 75.9472 146.32L75.4992 145.578C75.8725 145.261 76.3205 145.018 76.8432 144.85C77.3659 144.673 77.9165 144.584 78.4952 144.584ZM78.1452 151.29C78.7052 151.29 79.1859 151.164 79.5872 150.912C79.9885 150.651 80.2872 150.278 80.4832 149.792V148.588H78.1732C76.9132 148.588 76.2832 149.027 76.2832 149.904C76.2832 150.334 76.4465 150.674 76.7732 150.926C77.0999 151.169 77.5572 151.29 78.1452 151.29ZM85.129 146.082C85.3623 145.588 85.7077 145.214 86.165 144.962C86.6317 144.71 87.2057 144.584 87.887 144.584V145.55L87.649 145.536C86.8743 145.536 86.2677 145.774 85.829 146.25C85.3903 146.726 85.171 147.394 85.171 148.252V152.004H84.177V144.64H85.129V146.082Z" fill="black"/>
<path d="M246.441 128.204V138.004H245.419V133.482H239.287V138.004H238.251V128.204H239.287V132.572H245.419V128.204H246.441ZM249.43 130.64H250.424V138.004H249.43V130.64ZM249.934 129.03C249.729 129.03 249.556 128.96 249.416 128.82C249.276 128.68 249.206 128.512 249.206 128.316C249.206 128.13 249.276 127.966 249.416 127.826C249.556 127.686 249.729 127.616 249.934 127.616C250.139 127.616 250.312 127.686 250.452 127.826C250.592 127.957 250.662 128.116 250.662 128.302C250.662 128.508 250.592 128.68 250.452 128.82C250.312 128.96 250.139 129.03 249.934 129.03ZM260.008 130.64V137.108C260.008 138.359 259.7 139.283 259.084 139.88C258.477 140.487 257.558 140.79 256.326 140.79C255.644 140.79 254.996 140.688 254.38 140.482C253.773 140.286 253.278 140.011 252.896 139.656L253.4 138.9C253.754 139.218 254.184 139.465 254.688 139.642C255.201 139.82 255.738 139.908 256.298 139.908C257.231 139.908 257.917 139.689 258.356 139.25C258.794 138.821 259.014 138.149 259.014 137.234V136.296C258.706 136.763 258.3 137.118 257.796 137.36C257.301 137.603 256.75 137.724 256.144 137.724C255.453 137.724 254.823 137.575 254.254 137.276C253.694 136.968 253.25 136.544 252.924 136.002C252.606 135.452 252.448 134.831 252.448 134.14C252.448 133.45 252.606 132.834 252.924 132.292C253.25 131.751 253.694 131.331 254.254 131.032C254.814 130.734 255.444 130.584 256.144 130.584C256.769 130.584 257.334 130.71 257.838 130.962C258.342 131.214 258.748 131.578 259.056 132.054V130.64H260.008ZM256.242 136.842C256.774 136.842 257.254 136.73 257.684 136.506C258.113 136.273 258.444 135.951 258.678 135.54C258.92 135.13 259.042 134.663 259.042 134.14C259.042 133.618 258.92 133.156 258.678 132.754C258.444 132.344 258.113 132.026 257.684 131.802C257.264 131.569 256.783 131.452 256.242 131.452C255.71 131.452 255.229 131.564 254.8 131.788C254.38 132.012 254.048 132.33 253.806 132.74C253.572 133.151 253.456 133.618 253.456 134.14C253.456 134.663 253.572 135.13 253.806 135.54C254.048 135.951 254.38 136.273 254.8 136.506C255.229 136.73 255.71 136.842 256.242 136.842ZM262.787 130.64H263.781V138.004H262.787V130.64ZM263.291 129.03C263.086 129.03 262.913 128.96 262.773 128.82C262.633 128.68 262.563 128.512 262.563 128.316C262.563 128.13 262.633 127.966 262.773 127.826C262.913 127.686 263.086 127.616 263.291 127.616C263.497 127.616 263.669 127.686 263.809 127.826C263.949 127.957 264.019 128.116 264.019 128.302C264.019 128.508 263.949 128.68 263.809 128.82C263.669 128.96 263.497 129.03 263.291 129.03ZM272.959 134.63H266.799C266.855 135.396 267.149 136.016 267.681 136.492C268.213 136.959 268.885 137.192 269.697 137.192C270.154 137.192 270.574 137.113 270.957 136.954C271.34 136.786 271.671 136.544 271.951 136.226L272.511 136.87C272.184 137.262 271.774 137.561 271.279 137.766C270.794 137.972 270.257 138.074 269.669 138.074C268.913 138.074 268.241 137.916 267.653 137.598C267.074 137.272 266.622 136.824 266.295 136.254C265.968 135.685 265.805 135.041 265.805 134.322C265.805 133.604 265.959 132.96 266.267 132.39C266.584 131.821 267.014 131.378 267.555 131.06C268.106 130.743 268.722 130.584 269.403 130.584C270.084 130.584 270.696 130.743 271.237 131.06C271.778 131.378 272.203 131.821 272.511 132.39C272.819 132.95 272.973 133.594 272.973 134.322L272.959 134.63ZM269.403 131.438C268.694 131.438 268.096 131.667 267.611 132.124C267.135 132.572 266.864 133.16 266.799 133.888H272.021C271.956 133.16 271.68 132.572 271.195 132.124C270.719 131.667 270.122 131.438 269.403 131.438ZM278.748 130.584C279.672 130.584 280.405 130.855 280.946 131.396C281.497 131.928 281.772 132.708 281.772 133.734V138.004H280.778V133.832C280.778 133.067 280.587 132.484 280.204 132.082C279.822 131.681 279.276 131.48 278.566 131.48C277.773 131.48 277.143 131.718 276.676 132.194C276.219 132.661 275.99 133.31 275.99 134.14V138.004H274.996V130.64H275.948V131.998C276.219 131.55 276.592 131.205 277.068 130.962C277.554 130.71 278.114 130.584 278.748 130.584ZM284.471 130.64H285.465V138.004H284.471V130.64ZM284.975 129.03C284.77 129.03 284.597 128.96 284.457 128.82C284.317 128.68 284.247 128.512 284.247 128.316C284.247 128.13 284.317 127.966 284.457 127.826C284.597 127.686 284.77 127.616 284.975 127.616C285.18 127.616 285.353 127.686 285.493 127.826C285.633 127.957 285.703 128.116 285.703 128.302C285.703 128.508 285.633 128.68 285.493 128.82C285.353 128.96 285.18 129.03 284.975 129.03ZM293.425 137.178V138.004H287.433V137.346L292.067 131.48H287.517V130.64H293.341V131.298L288.707 137.178H293.425ZM297.957 130.584C298.918 130.584 299.656 130.827 300.169 131.312C300.682 131.788 300.939 132.498 300.939 133.44V138.004H299.987V136.856C299.763 137.239 299.432 137.538 298.993 137.752C298.564 137.967 298.05 138.074 297.453 138.074C296.632 138.074 295.978 137.878 295.493 137.486C295.008 137.094 294.765 136.576 294.765 135.932C294.765 135.307 294.989 134.803 295.437 134.42C295.894 134.038 296.618 133.846 297.607 133.846H299.945V133.398C299.945 132.764 299.768 132.283 299.413 131.956C299.058 131.62 298.54 131.452 297.859 131.452C297.392 131.452 296.944 131.532 296.515 131.69C296.086 131.84 295.717 132.05 295.409 132.32L294.961 131.578C295.334 131.261 295.782 131.018 296.305 130.85C296.828 130.673 297.378 130.584 297.957 130.584ZM297.607 137.29C298.167 137.29 298.648 137.164 299.049 136.912C299.45 136.651 299.749 136.278 299.945 135.792V134.588H297.635C296.375 134.588 295.745 135.027 295.745 135.904C295.745 136.334 295.908 136.674 296.235 136.926C296.562 137.169 297.019 137.29 297.607 137.29ZM306.718 138.074C305.99 138.074 305.337 137.916 304.758 137.598C304.189 137.281 303.741 136.838 303.414 136.268C303.088 135.69 302.924 135.041 302.924 134.322C302.924 133.604 303.088 132.96 303.414 132.39C303.741 131.821 304.189 131.378 304.758 131.06C305.337 130.743 305.99 130.584 306.718 130.584C307.353 130.584 307.918 130.71 308.412 130.962C308.916 131.205 309.313 131.564 309.602 132.04L308.86 132.544C308.618 132.18 308.31 131.91 307.936 131.732C307.563 131.546 307.157 131.452 306.718 131.452C306.186 131.452 305.706 131.574 305.276 131.816C304.856 132.05 304.525 132.386 304.282 132.824C304.049 133.263 303.932 133.762 303.932 134.322C303.932 134.892 304.049 135.396 304.282 135.834C304.525 136.264 304.856 136.6 305.276 136.842C305.706 137.076 306.186 137.192 306.718 137.192C307.157 137.192 307.563 137.104 307.936 136.926C308.31 136.749 308.618 136.478 308.86 136.114L309.602 136.618C309.313 137.094 308.916 137.458 308.412 137.71C307.908 137.953 307.344 138.074 306.718 138.074ZM306.13 141.084C305.673 141.084 305.281 140.977 304.954 140.762L305.192 140.23C305.463 140.408 305.771 140.496 306.116 140.496C306.396 140.496 306.611 140.44 306.76 140.328C306.91 140.216 306.984 140.053 306.984 139.838C306.984 139.642 306.91 139.484 306.76 139.362C306.62 139.25 306.406 139.194 306.116 139.194H305.794L306.13 137.92H306.732L306.522 138.732C306.905 138.77 307.199 138.886 307.404 139.082C307.61 139.288 307.712 139.549 307.712 139.866C307.712 140.24 307.568 140.534 307.278 140.748C306.989 140.972 306.606 141.084 306.13 141.084ZM314.131 130.584C315.092 130.584 315.83 130.827 316.343 131.312C316.856 131.788 317.113 132.498 317.113 133.44V138.004H316.161V136.856C315.937 137.239 315.606 137.538 315.167 137.752C314.738 137.967 314.224 138.074 313.627 138.074C312.806 138.074 312.152 137.878 311.667 137.486C311.182 137.094 310.939 136.576 310.939 135.932C310.939 135.307 311.163 134.803 311.611 134.42C312.068 134.038 312.792 133.846 313.781 133.846H316.119V133.398C316.119 132.764 315.942 132.283 315.587 131.956C315.232 131.62 314.714 131.452 314.033 131.452C313.566 131.452 313.118 131.532 312.689 131.69C312.26 131.84 311.891 132.05 311.583 132.32L311.135 131.578C311.508 131.261 311.956 131.018 312.479 130.85C313.002 130.673 313.552 130.584 314.131 130.584ZM313.781 137.29C314.341 137.29 314.822 137.164 315.223 136.912C315.624 136.651 315.923 136.278 316.119 135.792V134.588H313.809C312.549 134.588 311.919 135.027 311.919 135.904C311.919 136.334 312.082 136.674 312.409 136.926C312.736 137.169 313.193 137.29 313.781 137.29ZM315.111 129.408C314.896 129.408 314.705 129.362 314.537 129.268C314.369 129.166 314.187 129.026 313.991 128.848C313.823 128.708 313.688 128.61 313.585 128.554C313.492 128.489 313.389 128.456 313.277 128.456C313.062 128.456 312.89 128.536 312.759 128.694C312.628 128.853 312.558 129.072 312.549 129.352H311.947C311.966 128.886 312.087 128.512 312.311 128.232C312.535 127.952 312.834 127.812 313.207 127.812C313.422 127.812 313.608 127.859 313.767 127.952C313.935 128.046 314.126 128.186 314.341 128.372C314.49 128.503 314.616 128.601 314.719 128.666C314.822 128.732 314.929 128.764 315.041 128.764C315.246 128.764 315.414 128.69 315.545 128.54C315.676 128.382 315.75 128.167 315.769 127.896H316.371C316.352 128.354 316.231 128.722 316.007 129.002C315.783 129.273 315.484 129.408 315.111 129.408ZM322.85 138.074C322.141 138.074 321.501 137.916 320.932 137.598C320.363 137.272 319.915 136.824 319.588 136.254C319.261 135.685 319.098 135.041 319.098 134.322C319.098 133.604 319.261 132.96 319.588 132.39C319.915 131.821 320.363 131.378 320.932 131.06C321.501 130.743 322.141 130.584 322.85 130.584C323.559 130.584 324.199 130.743 324.768 131.06C325.337 131.378 325.781 131.821 326.098 132.39C326.425 132.96 326.588 133.604 326.588 134.322C326.588 135.041 326.425 135.685 326.098 136.254C325.781 136.824 325.337 137.272 324.768 137.598C324.199 137.916 323.559 138.074 322.85 138.074ZM322.85 137.192C323.373 137.192 323.839 137.076 324.25 136.842C324.67 136.6 324.997 136.259 325.23 135.82C325.463 135.382 325.58 134.882 325.58 134.322C325.58 133.762 325.463 133.263 325.23 132.824C324.997 132.386 324.67 132.05 324.25 131.816C323.839 131.574 323.373 131.452 322.85 131.452C322.327 131.452 321.856 131.574 321.436 131.816C321.025 132.05 320.699 132.386 320.456 132.824C320.223 133.263 320.106 133.762 320.106 134.322C320.106 134.882 320.223 135.382 320.456 135.82C320.699 136.259 321.025 136.6 321.436 136.842C321.856 137.076 322.327 137.192 322.85 137.192ZM338.694 134.63H332.534C332.59 135.396 332.884 136.016 333.416 136.492C333.948 136.959 334.62 137.192 335.432 137.192C335.889 137.192 336.309 137.113 336.692 136.954C337.074 136.786 337.406 136.544 337.686 136.226L338.246 136.87C337.919 137.262 337.508 137.561 337.014 137.766C336.528 137.972 335.992 138.074 335.404 138.074C334.648 138.074 333.976 137.916 333.388 137.598C332.809 137.272 332.356 136.824 332.03 136.254C331.703 135.685 331.54 135.041 331.54 134.322C331.54 133.604 331.694 132.96 332.002 132.39C332.319 131.821 332.748 131.378 333.29 131.06C333.84 130.743 334.456 130.584 335.138 130.584C335.819 130.584 336.43 130.743 336.972 131.06C337.513 131.378 337.938 131.821 338.246 132.39C338.554 132.95 338.708 133.594 338.708 134.322L338.694 134.63ZM335.138 131.438C334.428 131.438 333.831 131.667 333.346 132.124C332.87 132.572 332.599 133.16 332.534 133.888H337.756C337.69 133.16 337.415 132.572 336.93 132.124C336.454 131.667 335.856 131.438 335.138 131.438ZM265.496 145.204C266.747 145.204 267.727 145.503 268.436 146.1C269.146 146.698 269.5 147.519 269.5 148.564C269.5 149.61 269.146 150.431 268.436 151.028C267.727 151.616 266.747 151.91 265.496 151.91H262.864V155.004H261.828V145.204H265.496ZM265.468 151C266.439 151 267.181 150.79 267.694 150.37C268.208 149.941 268.464 149.339 268.464 148.564C268.464 147.771 268.208 147.164 267.694 146.744C267.181 146.315 266.439 146.1 265.468 146.1H262.864V151H265.468ZM272.291 149.082C272.524 148.588 272.87 148.214 273.327 147.962C273.794 147.71 274.368 147.584 275.049 147.584V148.55L274.811 148.536C274.036 148.536 273.43 148.774 272.991 149.25C272.552 149.726 272.333 150.394 272.333 151.252V155.004H271.339V147.64H272.291V149.082ZM283.193 151.63H277.033C277.089 152.396 277.383 153.016 277.915 153.492C278.447 153.959 279.119 154.192 279.931 154.192C280.388 154.192 280.808 154.113 281.191 153.954C281.573 153.786 281.905 153.544 282.185 153.226L282.745 153.87C282.418 154.262 282.007 154.561 281.513 154.766C281.027 154.972 280.491 155.074 279.903 155.074C279.147 155.074 278.475 154.916 277.887 154.598C277.308 154.272 276.855 153.824 276.529 153.254C276.202 152.685 276.039 152.041 276.039 151.322C276.039 150.604 276.193 149.96 276.501 149.39C276.818 148.821 277.247 148.378 277.789 148.06C278.339 147.743 278.955 147.584 279.637 147.584C280.318 147.584 280.929 147.743 281.471 148.06C282.012 148.378 282.437 148.821 282.745 149.39C283.053 149.95 283.207 150.594 283.207 151.322L283.193 151.63ZM279.637 148.438C278.927 148.438 278.33 148.667 277.845 149.124C277.369 149.572 277.098 150.16 277.033 150.888H282.255C282.189 150.16 281.914 149.572 281.429 149.124C280.953 148.667 280.355 148.438 279.637 148.438ZM289.024 147.584C289.714 147.584 290.34 147.743 290.9 148.06C291.46 148.368 291.898 148.807 292.216 149.376C292.533 149.946 292.692 150.594 292.692 151.322C292.692 152.06 292.533 152.713 292.216 153.282C291.898 153.852 291.46 154.295 290.9 154.612C290.349 154.92 289.724 155.074 289.024 155.074C288.426 155.074 287.885 154.953 287.4 154.71C286.924 154.458 286.532 154.094 286.224 153.618V157.72H285.23V147.64H286.182V149.096C286.48 148.611 286.872 148.238 287.358 147.976C287.852 147.715 288.408 147.584 289.024 147.584ZM288.954 154.192C289.467 154.192 289.934 154.076 290.354 153.842C290.774 153.6 291.1 153.259 291.334 152.82C291.576 152.382 291.698 151.882 291.698 151.322C291.698 150.762 291.576 150.268 291.334 149.838C291.1 149.4 290.774 149.059 290.354 148.816C289.934 148.574 289.467 148.452 288.954 148.452C288.431 148.452 287.96 148.574 287.54 148.816C287.129 149.059 286.802 149.4 286.56 149.838C286.326 150.268 286.21 150.762 286.21 151.322C286.21 151.882 286.326 152.382 286.56 152.82C286.802 153.259 287.129 153.6 287.54 153.842C287.96 154.076 288.431 154.192 288.954 154.192ZM297.253 147.584C298.214 147.584 298.952 147.827 299.465 148.312C299.978 148.788 300.235 149.498 300.235 150.44V155.004H299.283V153.856C299.059 154.239 298.728 154.538 298.289 154.752C297.86 154.967 297.346 155.074 296.749 155.074C295.928 155.074 295.274 154.878 294.789 154.486C294.304 154.094 294.061 153.576 294.061 152.932C294.061 152.307 294.285 151.803 294.733 151.42C295.19 151.038 295.914 150.846 296.903 150.846H299.241V150.398C299.241 149.764 299.064 149.283 298.709 148.956C298.354 148.62 297.836 148.452 297.155 148.452C296.688 148.452 296.24 148.532 295.811 148.69C295.382 148.84 295.013 149.05 294.705 149.32L294.257 148.578C294.63 148.261 295.078 148.018 295.601 147.85C296.124 147.673 296.674 147.584 297.253 147.584ZM296.903 154.29C297.463 154.29 297.944 154.164 298.345 153.912C298.746 153.651 299.045 153.278 299.241 152.792V151.588H296.931C295.671 151.588 295.041 152.027 295.041 152.904C295.041 153.334 295.204 153.674 295.531 153.926C295.858 154.169 296.315 154.29 296.903 154.29ZM303.887 149.082C304.12 148.588 304.465 148.214 304.923 147.962C305.389 147.71 305.963 147.584 306.645 147.584V148.55L306.407 148.536C305.632 148.536 305.025 148.774 304.587 149.25C304.148 149.726 303.929 150.394 303.929 151.252V155.004H302.935V147.64H303.887V149.082ZM311.386 155.074C310.677 155.074 310.038 154.916 309.468 154.598C308.899 154.272 308.451 153.824 308.124 153.254C307.798 152.685 307.634 152.041 307.634 151.322C307.634 150.604 307.798 149.96 308.124 149.39C308.451 148.821 308.899 148.378 309.468 148.06C310.038 147.743 310.677 147.584 311.386 147.584C312.096 147.584 312.735 147.743 313.304 148.06C313.874 148.378 314.317 148.821 314.634 149.39C314.961 149.96 315.124 150.604 315.124 151.322C315.124 152.041 314.961 152.685 314.634 153.254C314.317 153.824 313.874 154.272 313.304 154.598C312.735 154.916 312.096 155.074 311.386 155.074ZM311.386 154.192C311.909 154.192 312.376 154.076 312.786 153.842C313.206 153.6 313.533 153.259 313.766 152.82C314 152.382 314.116 151.882 314.116 151.322C314.116 150.762 314 150.263 313.766 149.824C313.533 149.386 313.206 149.05 312.786 148.816C312.376 148.574 311.909 148.452 311.386 148.452C310.864 148.452 310.392 148.574 309.972 148.816C309.562 149.05 309.235 149.386 308.992 149.824C308.759 150.263 308.642 150.762 308.642 151.322C308.642 151.882 308.759 152.382 308.992 152.82C309.235 153.259 309.562 153.6 309.972 153.842C310.392 154.076 310.864 154.192 311.386 154.192Z" fill="black"/>
<path d="M481.554 140.1H478.11V139.204H486.034V140.1H482.59V149.004H481.554V140.1ZM488.239 143.082C488.473 142.588 488.818 142.214 489.275 141.962C489.742 141.71 490.316 141.584 490.997 141.584V142.55L490.759 142.536C489.985 142.536 489.378 142.774 488.939 143.25C488.501 143.726 488.281 144.394 488.281 145.252V149.004H487.287V141.64H488.239V143.082ZM495.359 141.584C496.321 141.584 497.058 141.827 497.571 142.312C498.085 142.788 498.341 143.498 498.341 144.44V149.004H497.389V147.856C497.165 148.239 496.834 148.538 496.395 148.752C495.966 148.967 495.453 149.074 494.855 149.074C494.034 149.074 493.381 148.878 492.895 148.486C492.41 148.094 492.167 147.576 492.167 146.932C492.167 146.307 492.391 145.803 492.839 145.42C493.297 145.038 494.02 144.846 495.009 144.846H497.347V144.398C497.347 143.764 497.17 143.283 496.815 142.956C496.461 142.62 495.943 142.452 495.261 142.452C494.795 142.452 494.347 142.532 493.917 142.69C493.488 142.84 493.119 143.05 492.811 143.32L492.363 142.578C492.737 142.261 493.185 142.018 493.707 141.85C494.23 141.673 494.781 141.584 495.359 141.584ZM495.009 148.29C495.569 148.29 496.05 148.164 496.451 147.912C496.853 147.651 497.151 147.278 497.347 146.792V145.588H495.037C493.777 145.588 493.147 146.027 493.147 146.904C493.147 147.334 493.311 147.674 493.637 147.926C493.964 148.169 494.421 148.29 495.009 148.29ZM504.793 141.584C505.717 141.584 506.45 141.855 506.991 142.396C507.542 142.928 507.817 143.708 507.817 144.734V149.004H506.823V144.832C506.823 144.067 506.632 143.484 506.249 143.082C505.867 142.681 505.321 142.48 504.611 142.48C503.818 142.48 503.188 142.718 502.721 143.194C502.264 143.661 502.035 144.31 502.035 145.14V149.004H501.041V141.64H501.993V142.998C502.264 142.55 502.637 142.205 503.113 141.962C503.599 141.71 504.159 141.584 504.793 141.584ZM512.49 149.074C511.893 149.074 511.319 148.99 510.768 148.822C510.227 148.645 509.802 148.426 509.494 148.164L509.942 147.38C510.25 147.623 510.637 147.824 511.104 147.982C511.571 148.132 512.056 148.206 512.56 148.206C513.232 148.206 513.727 148.104 514.044 147.898C514.371 147.684 514.534 147.385 514.534 147.002C514.534 146.732 514.445 146.522 514.268 146.372C514.091 146.214 513.867 146.097 513.596 146.022C513.325 145.938 512.966 145.859 512.518 145.784C511.921 145.672 511.44 145.56 511.076 145.448C510.712 145.327 510.399 145.126 510.138 144.846C509.886 144.566 509.76 144.179 509.76 143.684C509.76 143.068 510.017 142.564 510.53 142.172C511.043 141.78 511.757 141.584 512.672 141.584C513.148 141.584 513.624 141.65 514.1 141.78C514.576 141.902 514.968 142.065 515.276 142.27L514.842 143.068C514.235 142.648 513.512 142.438 512.672 142.438C512.037 142.438 511.557 142.55 511.23 142.774C510.913 142.998 510.754 143.292 510.754 143.656C510.754 143.936 510.843 144.16 511.02 144.328C511.207 144.496 511.435 144.622 511.706 144.706C511.977 144.781 512.35 144.86 512.826 144.944C513.414 145.056 513.885 145.168 514.24 145.28C514.595 145.392 514.898 145.584 515.15 145.854C515.402 146.125 515.528 146.498 515.528 146.974C515.528 147.618 515.257 148.132 514.716 148.514C514.184 148.888 513.442 149.074 512.49 149.074ZM521.159 141.584C521.85 141.584 522.475 141.743 523.035 142.06C523.595 142.368 524.034 142.807 524.351 143.376C524.669 143.946 524.827 144.594 524.827 145.322C524.827 146.06 524.669 146.713 524.351 147.282C524.034 147.852 523.595 148.295 523.035 148.612C522.485 148.92 521.859 149.074 521.159 149.074C520.562 149.074 520.021 148.953 519.535 148.71C519.059 148.458 518.667 148.094 518.359 147.618V151.72H517.365V141.64H518.317V143.096C518.616 142.611 519.008 142.238 519.493 141.976C519.988 141.715 520.543 141.584 521.159 141.584ZM521.089 148.192C521.603 148.192 522.069 148.076 522.489 147.842C522.909 147.6 523.236 147.259 523.469 146.82C523.712 146.382 523.833 145.882 523.833 145.322C523.833 144.762 523.712 144.268 523.469 143.838C523.236 143.4 522.909 143.059 522.489 142.816C522.069 142.574 521.603 142.452 521.089 142.452C520.567 142.452 520.095 142.574 519.675 142.816C519.265 143.059 518.938 143.4 518.695 143.838C518.462 144.268 518.345 144.762 518.345 145.322C518.345 145.882 518.462 146.382 518.695 146.82C518.938 147.259 519.265 147.6 519.675 147.842C520.095 148.076 520.567 148.192 521.089 148.192ZM529.864 149.074C529.154 149.074 528.515 148.916 527.946 148.598C527.376 148.272 526.928 147.824 526.602 147.254C526.275 146.685 526.112 146.041 526.112 145.322C526.112 144.604 526.275 143.96 526.602 143.39C526.928 142.821 527.376 142.378 527.946 142.06C528.515 141.743 529.154 141.584 529.864 141.584C530.573 141.584 531.212 141.743 531.782 142.06C532.351 142.378 532.794 142.821 533.112 143.39C533.438 143.96 533.602 144.604 533.602 145.322C533.602 146.041 533.438 146.685 533.112 147.254C532.794 147.824 532.351 148.272 531.782 148.598C531.212 148.916 530.573 149.074 529.864 149.074ZM529.864 148.192C530.386 148.192 530.853 148.076 531.264 147.842C531.684 147.6 532.01 147.259 532.244 146.82C532.477 146.382 532.594 145.882 532.594 145.322C532.594 144.762 532.477 144.263 532.244 143.824C532.01 143.386 531.684 143.05 531.264 142.816C530.853 142.574 530.386 142.452 529.864 142.452C529.341 142.452 528.87 142.574 528.45 142.816C528.039 143.05 527.712 143.386 527.47 143.824C527.236 144.263 527.12 144.762 527.12 145.322C527.12 145.882 527.236 146.382 527.47 146.82C527.712 147.259 528.039 147.6 528.45 147.842C528.87 148.076 529.341 148.192 529.864 148.192ZM536.583 143.082C536.816 142.588 537.162 142.214 537.619 141.962C538.086 141.71 538.66 141.584 539.341 141.584V142.55L539.103 142.536C538.328 142.536 537.722 142.774 537.283 143.25C536.844 143.726 536.625 144.394 536.625 145.252V149.004H535.631V141.64H536.583V143.082ZM545.333 148.556C545.147 148.724 544.913 148.855 544.633 148.948C544.363 149.032 544.078 149.074 543.779 149.074C543.089 149.074 542.557 148.888 542.183 148.514C541.81 148.141 541.623 147.614 541.623 146.932V142.48H540.307V141.64H541.623V140.03H542.617V141.64H544.857V142.48H542.617V146.876C542.617 147.315 542.725 147.651 542.939 147.884C543.163 148.108 543.481 148.22 543.891 148.22C544.097 148.22 544.293 148.188 544.479 148.122C544.675 148.057 544.843 147.964 544.983 147.842L545.333 148.556ZM553.295 145.63H547.135C547.191 146.396 547.485 147.016 548.017 147.492C548.549 147.959 549.221 148.192 550.033 148.192C550.49 148.192 550.91 148.113 551.293 147.954C551.676 147.786 552.007 147.544 552.287 147.226L552.847 147.87C552.52 148.262 552.11 148.561 551.615 148.766C551.13 148.972 550.593 149.074 550.005 149.074C549.249 149.074 548.577 148.916 547.989 148.598C547.41 148.272 546.958 147.824 546.631 147.254C546.304 146.685 546.141 146.041 546.141 145.322C546.141 144.604 546.295 143.96 546.603 143.39C546.92 142.821 547.35 142.378 547.891 142.06C548.442 141.743 549.058 141.584 549.739 141.584C550.42 141.584 551.032 141.743 551.573 142.06C552.114 142.378 552.539 142.821 552.847 143.39C553.155 143.95 553.309 144.594 553.309 145.322L553.295 145.63ZM549.739 142.438C549.03 142.438 548.432 142.667 547.947 143.124C547.471 143.572 547.2 144.16 547.135 144.888H552.357C552.292 144.16 552.016 143.572 551.531 143.124C551.055 142.667 550.458 142.438 549.739 142.438Z" fill="black"/>
<path d="M699.092 136.204V146.004H698.238L691.938 138.052V146.004H690.902V136.204H691.756L698.07 144.156V136.204H699.092ZM705.09 146.074C704.381 146.074 703.742 145.916 703.172 145.598C702.603 145.272 702.155 144.824 701.828 144.254C701.502 143.685 701.338 143.041 701.338 142.322C701.338 141.604 701.502 140.96 701.828 140.39C702.155 139.821 702.603 139.378 703.172 139.06C703.742 138.743 704.381 138.584 705.09 138.584C705.8 138.584 706.439 138.743 707.008 139.06C707.578 139.378 708.021 139.821 708.338 140.39C708.665 140.96 708.828 141.604 708.828 142.322C708.828 143.041 708.665 143.685 708.338 144.254C708.021 144.824 707.578 145.272 707.008 145.598C706.439 145.916 705.8 146.074 705.09 146.074ZM705.09 145.192C705.613 145.192 706.08 145.076 706.49 144.842C706.91 144.6 707.237 144.259 707.47 143.82C707.704 143.382 707.82 142.882 707.82 142.322C707.82 141.762 707.704 141.263 707.47 140.824C707.237 140.386 706.91 140.05 706.49 139.816C706.08 139.574 705.613 139.452 705.09 139.452C704.568 139.452 704.096 139.574 703.676 139.816C703.266 140.05 702.939 140.386 702.696 140.824C702.463 141.263 702.346 141.762 702.346 142.322C702.346 142.882 702.463 143.382 702.696 143.82C702.939 144.259 703.266 144.6 703.676 144.842C704.096 145.076 704.568 145.192 705.09 145.192ZM712.832 146.074C712.234 146.074 711.66 145.99 711.11 145.822C710.568 145.645 710.144 145.426 709.836 145.164L710.284 144.38C710.592 144.623 710.979 144.824 711.446 144.982C711.912 145.132 712.398 145.206 712.902 145.206C713.574 145.206 714.068 145.104 714.386 144.898C714.712 144.684 714.876 144.385 714.876 144.002C714.876 143.732 714.787 143.522 714.61 143.372C714.432 143.214 714.208 143.097 713.938 143.022C713.667 142.938 713.308 142.859 712.86 142.784C712.262 142.672 711.782 142.56 711.418 142.448C711.054 142.327 710.741 142.126 710.48 141.846C710.228 141.566 710.102 141.179 710.102 140.684C710.102 140.068 710.358 139.564 710.872 139.172C711.385 138.78 712.099 138.584 713.014 138.584C713.49 138.584 713.966 138.65 714.442 138.78C714.918 138.902 715.31 139.065 715.618 139.27L715.184 140.068C714.577 139.648 713.854 139.438 713.014 139.438C712.379 139.438 711.898 139.55 711.572 139.774C711.254 139.998 711.096 140.292 711.096 140.656C711.096 140.936 711.184 141.16 711.362 141.328C711.548 141.496 711.777 141.622 712.048 141.706C712.318 141.781 712.692 141.86 713.168 141.944C713.756 142.056 714.227 142.168 714.582 142.28C714.936 142.392 715.24 142.584 715.492 142.854C715.744 143.125 715.87 143.498 715.87 143.974C715.87 144.618 715.599 145.132 715.058 145.514C714.526 145.888 713.784 146.074 712.832 146.074ZM719.681 146.074C719.084 146.074 718.51 145.99 717.959 145.822C717.418 145.645 716.993 145.426 716.685 145.164L717.133 144.38C717.441 144.623 717.829 144.824 718.295 144.982C718.762 145.132 719.247 145.206 719.751 145.206C720.423 145.206 720.918 145.104 721.235 144.898C721.562 144.684 721.725 144.385 721.725 144.002C721.725 143.732 721.637 143.522 721.459 143.372C721.282 143.214 721.058 143.097 720.787 143.022C720.517 142.938 720.157 142.859 719.709 142.784C719.112 142.672 718.631 142.56 718.267 142.448C717.903 142.327 717.591 142.126 717.329 141.846C717.077 141.566 716.951 141.179 716.951 140.684C716.951 140.068 717.208 139.564 717.721 139.172C718.235 138.78 718.949 138.584 719.863 138.584C720.339 138.584 720.815 138.65 721.291 138.78C721.767 138.902 722.159 139.065 722.467 139.27L722.033 140.068C721.427 139.648 720.703 139.438 719.863 139.438C719.229 139.438 718.748 139.55 718.421 139.774C718.104 139.998 717.945 140.292 717.945 140.656C717.945 140.936 718.034 141.16 718.211 141.328C718.398 141.496 718.627 141.622 718.897 141.706C719.168 141.781 719.541 141.86 720.017 141.944C720.605 142.056 721.077 142.168 721.431 142.28C721.786 142.392 722.089 142.584 722.341 142.854C722.593 143.125 722.719 143.498 722.719 143.974C722.719 144.618 722.449 145.132 721.907 145.514C721.375 145.888 720.633 146.074 719.681 146.074ZM727.567 146.074C726.858 146.074 726.218 145.916 725.649 145.598C725.08 145.272 724.632 144.824 724.305 144.254C723.978 143.685 723.815 143.041 723.815 142.322C723.815 141.604 723.978 140.96 724.305 140.39C724.632 139.821 725.08 139.378 725.649 139.06C726.218 138.743 726.858 138.584 727.567 138.584C728.276 138.584 728.916 138.743 729.485 139.06C730.054 139.378 730.498 139.821 730.815 140.39C731.142 140.96 731.305 141.604 731.305 142.322C731.305 143.041 731.142 143.685 730.815 144.254C730.498 144.824 730.054 145.272 729.485 145.598C728.916 145.916 728.276 146.074 727.567 146.074ZM727.567 145.192C728.09 145.192 728.556 145.076 728.967 144.842C729.387 144.6 729.714 144.259 729.947 143.82C730.18 143.382 730.297 142.882 730.297 142.322C730.297 141.762 730.18 141.263 729.947 140.824C729.714 140.386 729.387 140.05 728.967 139.816C728.556 139.574 728.09 139.452 727.567 139.452C727.044 139.452 726.573 139.574 726.153 139.816C725.742 140.05 725.416 140.386 725.173 140.824C724.94 141.263 724.823 141.762 724.823 142.322C724.823 142.882 724.94 143.382 725.173 143.82C725.416 144.259 725.742 144.6 726.153 144.842C726.573 145.076 727.044 145.192 727.567 145.192ZM735.308 146.074C734.711 146.074 734.137 145.99 733.586 145.822C733.045 145.645 732.62 145.426 732.312 145.164L732.76 144.38C733.068 144.623 733.456 144.824 733.922 144.982C734.389 145.132 734.874 145.206 735.378 145.206C736.05 145.206 736.545 145.104 736.862 144.898C737.189 144.684 737.352 144.385 737.352 144.002C737.352 143.732 737.264 143.522 737.086 143.372C736.909 143.214 736.685 143.097 736.414 143.022C736.144 142.938 735.784 142.859 735.336 142.784C734.739 142.672 734.258 142.56 733.894 142.448C733.53 142.327 733.218 142.126 732.956 141.846C732.704 141.566 732.578 141.179 732.578 140.684C732.578 140.068 732.835 139.564 733.348 139.172C733.862 138.78 734.576 138.584 735.49 138.584C735.966 138.584 736.442 138.65 736.918 138.78C737.394 138.902 737.786 139.065 738.094 139.27L737.66 140.068C737.054 139.648 736.33 139.438 735.49 139.438C734.856 139.438 734.375 139.55 734.048 139.774C733.731 139.998 733.572 140.292 733.572 140.656C733.572 140.936 733.661 141.16 733.838 141.328C734.025 141.496 734.254 141.622 734.524 141.706C734.795 141.781 735.168 141.86 735.644 141.944C736.232 142.056 736.704 142.168 737.058 142.28C737.413 142.392 737.716 142.584 737.968 142.854C738.22 143.125 738.346 143.498 738.346 143.974C738.346 144.618 738.076 145.132 737.534 145.514C737.002 145.888 736.26 146.074 735.308 146.074ZM748.314 146.088C747.343 146.088 746.466 145.874 745.682 145.444C744.907 145.015 744.296 144.422 743.848 143.666C743.409 142.901 743.19 142.047 743.19 141.104C743.19 140.162 743.409 139.312 743.848 138.556C744.296 137.791 744.912 137.194 745.696 136.764C746.48 136.335 747.357 136.12 748.328 136.12C749.056 136.12 749.728 136.242 750.344 136.484C750.96 136.727 751.483 137.082 751.912 137.548L751.254 138.206C750.489 137.432 749.523 137.044 748.356 137.044C747.581 137.044 746.877 137.222 746.242 137.576C745.607 137.931 745.108 138.416 744.744 139.032C744.389 139.648 744.212 140.339 744.212 141.104C744.212 141.87 744.389 142.56 744.744 143.176C745.108 143.792 745.607 144.278 746.242 144.632C746.877 144.987 747.581 145.164 748.356 145.164C749.532 145.164 750.498 144.772 751.254 143.988L751.912 144.646C751.483 145.113 750.955 145.472 750.33 145.724C749.714 145.967 749.042 146.088 748.314 146.088ZM753.91 135.616H754.904V146.004H753.91V135.616ZM757.67 138.64H758.664V146.004H757.67V138.64ZM758.174 137.03C757.969 137.03 757.796 136.96 757.656 136.82C757.516 136.68 757.446 136.512 757.446 136.316C757.446 136.13 757.516 135.966 757.656 135.826C757.796 135.686 757.969 135.616 758.174 135.616C758.38 135.616 758.552 135.686 758.692 135.826C758.832 135.957 758.902 136.116 758.902 136.302C758.902 136.508 758.832 136.68 758.692 136.82C758.552 136.96 758.38 137.03 758.174 137.03ZM767.842 142.63H761.682C761.738 143.396 762.032 144.016 762.564 144.492C763.096 144.959 763.768 145.192 764.58 145.192C765.037 145.192 765.457 145.113 765.84 144.954C766.223 144.786 766.554 144.544 766.834 144.226L767.394 144.87C767.067 145.262 766.657 145.561 766.162 145.766C765.677 145.972 765.14 146.074 764.552 146.074C763.796 146.074 763.124 145.916 762.536 145.598C761.957 145.272 761.505 144.824 761.178 144.254C760.851 143.685 760.688 143.041 760.688 142.322C760.688 141.604 760.842 140.96 761.15 140.39C761.467 139.821 761.897 139.378 762.438 139.06C762.989 138.743 763.605 138.584 764.286 138.584C764.967 138.584 765.579 138.743 766.12 139.06C766.661 139.378 767.086 139.821 767.394 140.39C767.702 140.95 767.856 141.594 767.856 142.322L767.842 142.63ZM764.286 139.438C763.577 139.438 762.979 139.667 762.494 140.124C762.018 140.572 761.747 141.16 761.682 141.888H766.904C766.839 141.16 766.563 140.572 766.078 140.124C765.602 139.667 765.005 139.438 764.286 139.438ZM773.631 138.584C774.555 138.584 775.288 138.855 775.829 139.396C776.38 139.928 776.655 140.708 776.655 141.734V146.004H775.661V141.832C775.661 141.067 775.47 140.484 775.087 140.082C774.704 139.681 774.158 139.48 773.449 139.48C772.656 139.48 772.026 139.718 771.559 140.194C771.102 140.661 770.873 141.31 770.873 142.14V146.004H769.879V138.64H770.831V139.998C771.102 139.55 771.475 139.205 771.951 138.962C772.436 138.71 772.996 138.584 773.631 138.584ZM783.232 145.556C783.045 145.724 782.812 145.855 782.532 145.948C782.261 146.032 781.976 146.074 781.678 146.074C780.987 146.074 780.455 145.888 780.082 145.514C779.708 145.141 779.522 144.614 779.522 143.932V139.48H778.206V138.64H779.522V137.03H780.516V138.64H782.756V139.48H780.516V143.876C780.516 144.315 780.623 144.651 780.838 144.884C781.062 145.108 781.379 145.22 781.79 145.22C781.995 145.22 782.191 145.188 782.378 145.122C782.574 145.057 782.742 144.964 782.882 144.842L783.232 145.556ZM791.194 142.63H785.034C785.09 143.396 785.384 144.016 785.916 144.492C786.448 144.959 787.12 145.192 787.932 145.192C788.389 145.192 788.809 145.113 789.192 144.954C789.574 144.786 789.906 144.544 790.186 144.226L790.746 144.87C790.419 145.262 790.008 145.561 789.514 145.766C789.028 145.972 788.492 146.074 787.904 146.074C787.148 146.074 786.476 145.916 785.888 145.598C785.309 145.272 784.856 144.824 784.53 144.254C784.203 143.685 784.04 143.041 784.04 142.322C784.04 141.604 784.194 140.96 784.502 140.39C784.819 139.821 785.248 139.378 785.79 139.06C786.34 138.743 786.956 138.584 787.638 138.584C788.319 138.584 788.93 138.743 789.472 139.06C790.013 139.378 790.438 139.821 790.746 140.39C791.054 140.95 791.208 141.594 791.208 142.322L791.194 142.63ZM787.638 139.438C786.928 139.438 786.331 139.667 785.846 140.124C785.37 140.572 785.099 141.16 785.034 141.888H790.256C790.19 141.16 789.915 140.572 789.43 140.124C788.954 139.667 788.356 139.438 787.638 139.438ZM795.205 146.074C794.607 146.074 794.033 145.99 793.483 145.822C792.941 145.645 792.517 145.426 792.209 145.164L792.657 144.38C792.965 144.623 793.352 144.824 793.819 144.982C794.285 145.132 794.771 145.206 795.275 145.206C795.947 145.206 796.441 145.104 796.759 144.898C797.085 144.684 797.249 144.385 797.249 144.002C797.249 143.732 797.16 143.522 796.983 143.372C796.805 143.214 796.581 143.097 796.311 143.022C796.04 142.938 795.681 142.859 795.233 142.784C794.635 142.672 794.155 142.56 793.791 142.448C793.427 142.327 793.114 142.126 792.853 141.846C792.601 141.566 792.475 141.179 792.475 140.684C792.475 140.068 792.731 139.564 793.245 139.172C793.758 138.78 794.472 138.584 795.387 138.584C795.863 138.584 796.339 138.65 796.815 138.78C797.291 138.902 797.683 139.065 797.991 139.27L797.557 140.068C796.95 139.648 796.227 139.438 795.387 139.438C794.752 139.438 794.271 139.55 793.945 139.774C793.627 139.998 793.469 140.292 793.469 140.656C793.469 140.936 793.557 141.16 793.735 141.328C793.921 141.496 794.15 141.622 794.421 141.706C794.691 141.781 795.065 141.86 795.541 141.944C796.129 142.056 796.6 142.168 796.955 142.28C797.309 142.392 797.613 142.584 797.865 142.854C798.117 143.125 798.243 143.498 798.243 143.974C798.243 144.618 797.972 145.132 797.431 145.514C796.899 145.888 796.157 146.074 795.205 146.074Z" fill="black"/>
<path d="M432.414 75.4184C433.195 74.6374 433.195 73.371 432.414 72.59L419.686 59.8621C418.905 59.081 417.639 59.081 416.858 59.8621C416.077 60.6431 416.077 61.9095 416.858 62.6905L428.172 74.0042L416.858 85.3179C416.077 86.099 416.077 87.3653 416.858 88.1463C417.639 88.9274 418.905 88.9274 419.686 88.1463L432.414 75.4184ZM351 76.0042H431V72.0042H351V76.0042Z" fill="black"/>
<path d="M218.414 75.4184C219.195 74.6374 219.195 73.371 218.414 72.59L205.686 59.8621C204.905 59.081 203.639 59.081 202.858 59.8621C202.077 60.6431 202.077 61.9095 202.858 62.6905L214.172 74.0042L202.858 85.3179C202.077 86.099 202.077 87.3653 202.858 88.1463C203.639 88.9274 204.905 88.9274 205.686 88.1463L218.414 75.4184ZM137 76.0042H217V72.0042H137V76.0042Z" fill="black"/>
<path d="M681.414 75.4184C682.195 74.6374 682.195 73.371 681.414 72.59L668.686 59.8621C667.905 59.081 666.639 59.081 665.858 59.8621C665.077 60.6431 665.077 61.9095 665.858 62.6905L677.172 74.0042L665.858 85.3179C665.077 86.099 665.077 87.3653 665.858 88.1463C666.639 88.9274 667.905 88.9274 668.686 88.1463L681.414 75.4184ZM600 76.0042H680V72.0042H600V76.0042Z" fill="black"/>
<defs>
<clipPath id="clip0">
<rect width="120" height="120" fill="white" transform="translate(228 0.0057373)"/>
</clipPath>
<clipPath id="clip1">
<rect width="120" height="120" fill="white" transform="translate(684 0.0057373)"/>
</clipPath>
</defs>
</svg>
