<svg width="32" height="32" viewBox="0 0 32 32" fill="none" xmlns="http://www.w3.org/2000/svg">
<path d="M31.3742 28.1617L23.2188 20.0064C22.9406 19.7269 22.5887 19.5509 22.2158 19.4652C23.6264 17.473 24.4635 15.0475 24.4635 12.4251C24.4635 5.68027 18.9772 0.193359 12.2317 0.193359C5.48691 0.193282 0 5.67965 0 12.425C0 19.1692 5.48691 24.6562 12.2317 24.6562C15.0314 24.6562 17.6051 23.6973 19.668 22.107C19.7639 22.4425 19.9348 22.7611 20.1985 23.0254L28.355 31.1814C28.7587 31.5851 29.2943 31.8065 29.8653 31.8065C30.4362 31.8065 30.9718 31.5845 31.3748 31.1814C31.7786 30.7777 32.0007 30.2414 32 29.6699C31.9993 29.0997 31.7773 28.5642 31.3742 28.1617ZM1.26102 12.4244C1.26102 6.37539 6.18211 1.45431 12.2311 1.45431C18.2795 1.45431 23.2006 6.37539 23.2006 12.4244C23.2006 15.3256 22.0594 17.9599 20.2142 19.9244C20.2054 19.932 20.1965 19.9351 20.1871 19.942C20.1744 19.9553 20.1713 19.9723 20.1587 19.9843C18.1602 22.0793 15.3486 23.3927 12.2323 23.3927C6.18273 23.3939 1.26102 18.4722 1.26102 12.4244ZM30.4822 30.2888C30.1523 30.6193 29.577 30.6187 29.247 30.2888L21.0905 22.1335C20.7505 21.7929 20.7505 21.2384 21.0905 20.8977C21.2558 20.7324 21.4753 20.6416 21.7087 20.6416C21.9421 20.6416 22.161 20.7331 22.3263 20.8977L30.4828 29.055C30.6475 29.2196 30.7377 29.4379 30.7377 29.6713C30.7383 29.9041 30.6475 30.1242 30.4822 30.2888Z" fill="#325E47"/>
</svg>
