<svg width="16" height="16" viewBox="0 0 16 16" fill="none" xmlns="http://www.w3.org/2000/svg">
<path d="M8 0C3.59732 0 0 3.57942 0 8C0 12.4027 3.57942 16 8 16C12.4206 16 16 12.4027 16 8C16 3.59732 12.4027 0 8 0ZM8 4.09843C9.36018 4.09843 10.4877 5.20805 10.4877 6.58613C10.4877 7.94631 9.37808 9.07383 8 9.07383C6.62192 9.07383 5.5123 7.94631 5.5123 6.56823C5.5123 5.20805 6.63982 4.09843 8 4.09843ZM8 14.3535C6.47875 14.3535 5.08277 13.8166 3.99105 12.9217C5.13647 11.6689 6.53244 10.9709 8 10.9709C9.46756 10.9709 10.8814 11.651 12.0089 12.9217C10.9172 13.8166 9.52125 14.3535 8 14.3535Z" fill="#AF7061"/>
</svg>
